<svg width="130" height="130" viewBox="0 0 130 130" fill="none" xmlns="http://www.w3.org/2000/svg">
<path fill-rule="evenodd" clip-rule="evenodd" d="M35.5531 9.80048C34.4366 11.2623 22.4708 31.2073 22.0936 32.235C21.7553 33.1569 22.337 33.6369 23.7908 33.6369C25.0946 33.6369 25.1165 33.6053 32.7864 20.7099C35.7655 15.7009 36.205 15.0729 36.6673 15.1645C36.9946 15.229 37.9654 16.6818 42.2982 23.591C47.8607 32.4616 48.1892 32.947 48.8139 33.2155C50.1598 33.7939 51.6228 33.2529 51.6228 32.1769C51.6228 31.6359 50.2892 29.3597 46.6196 23.638C44.9891 21.0947 42.5364 17.2543 41.17 15.1031C36.9327 8.43432 36.7375 8.24979 35.5531 9.80048ZM40.883 9.42058C40.6431 10.064 42.8264 13.487 43.7695 13.9454C44.5241 14.3127 96.5473 14.4683 96.9004 14.1047C97.2654 13.7297 95.7628 10.8684 94.5987 9.72107L94.0974 9.22749L67.5433 9.18146C43.208 9.13905 40.9804 9.1589 40.883 9.42058ZM46.3108 16.8785C45.6024 17.0896 45.7879 17.8386 47.0627 19.9145C49.171 23.3483 49.0078 23.2802 54.9322 23.185C59.8594 23.1056 60.0752 23.0569 59.9888 22.0408C59.9081 21.0947 60.2792 21.1263 62.0098 22.2141L63.5 23.1507L74.9113 23.1841C87.6001 23.2211 87.4918 23.2297 87.4054 22.2095C87.3325 21.3483 87.5856 21.3695 89.1666 22.3575L90.4357 23.1507L95.9194 23.2039C102.846 23.2712 103.129 23.2279 102.601 22.1788C102.033 21.0501 99.8174 17.6802 99.3573 17.2467L98.8903 16.8059L72.8149 16.7783C58.4732 16.763 46.5464 16.8081 46.3108 16.8785ZM36.2682 25.2424C35.4921 25.6055 35.5184 25.0001 35.5391 42.2728C35.5676 65.9202 35.6847 72.274 36.1002 72.7459C36.7279 73.4584 38.9191 73.9944 39.3586 73.5427C39.6714 73.2211 39.7798 26.6685 39.4696 25.8298C39.2073 25.1205 37.2819 24.7672 36.2682 25.2424ZM51.471 25.5135C51.1244 25.7395 51.346 26.4371 52.1979 27.8005C52.5984 28.4416 53.1713 29.3674 53.471 29.8578C53.7701 30.3483 54.2158 30.9429 54.4606 31.1798L54.9063 31.6102L75.7817 31.6562C99.7985 31.7095 98.2393 31.8462 97.2115 29.7744C96.8962 29.1382 96.9025 28.8783 97.2332 28.8783C97.3115 28.8783 97.3563 28.9677 97.3325 29.0769C97.3094 29.1856 97.5213 29.3566 97.8045 29.4567C98.3582 29.653 99.084 30.1182 100.262 31.0323L101.007 31.6102L104.036 31.6648C107.174 31.7216 108 31.5948 108 31.0562C108 30.3194 105.153 25.874 104.479 25.5582C103.948 25.3091 51.8526 25.2654 51.471 25.5135ZM86.793 34.9575C85.7287 35.4335 85.4629 38.0719 86.4415 38.4428C87.6909 38.9161 87.7783 41.8884 86.5806 43.1959C85.6787 44.1808 85.694 43.8984 85.7563 58.3494C85.8173 72.5497 85.6243 71.2155 87.6681 71.5756C89.597 71.9153 89.4075 73.9194 89.4075 53.179C89.4075 35.5797 89.4004 35.1893 89.075 34.9444C88.6529 34.6272 87.5177 34.6335 86.793 34.9575ZM63.3895 37.6315C63.196 37.8305 63.2622 38.552 63.5593 39.4868C63.807 40.265 63.8159 40.5407 63.6276 41.6344C63.2171 44.0229 63.4145 44.6103 64.4335 44.0333C65.9316 43.185 66.1452 39.4083 64.7796 37.9131C64.4348 37.5359 63.6395 37.3748 63.3895 37.6315ZM66.3562 37.9646C66.2273 38.3128 66.2387 38.5096 66.3988 38.708C66.6054 38.9639 66.6506 41.0605 66.4984 43.3299C66.4488 44.0738 66.4738 44.1267 66.9007 44.1772C68.0991 44.3198 68.9839 41.5446 68.4132 39.4322C67.9741 37.8066 66.7401 36.926 66.3562 37.9646ZM43.1694 39.0496C42.2917 39.189 41.817 41.8031 42.579 42.3007C42.8843 42.4997 61.4417 42.4871 61.9523 42.2872C62.8187 41.9484 63.0017 40.1505 62.248 39.3754C61.9116 39.0288 45.1067 38.7419 43.1694 39.0496ZM71.158 39.0464C70.661 39.2287 70.4723 39.7038 70.475 40.7641C70.4794 42.497 69.8117 42.354 78.1607 42.4104L85.5186 42.4596L85.8779 41.9899C86.3744 41.3411 86.3841 39.7796 85.8946 39.2766C85.5607 38.9328 72.0411 38.7216 71.158 39.0464ZM92.5794 39.0821C91.969 39.2558 91.6952 39.9073 91.7711 41.0009C91.9271 43.2455 94.8056 43.0493 94.8056 40.7943C94.8056 39.3636 93.9359 38.695 92.5794 39.0821ZM32.1735 39.2278C31.4098 39.4209 31.0619 40.543 31.3971 41.7314C31.8134 43.2072 34.1459 42.9464 34.4007 41.3962C34.6696 39.7571 33.7238 38.8362 32.1735 39.2278ZM65.1885 45.9295C65.1033 46.0992 64.9933 47.6102 64.9441 49.2867C64.8722 51.7528 64.8024 52.3958 64.5787 52.6498C64.4269 52.8226 64.337 52.999 64.3787 53.0418C64.4204 53.0847 64.0339 53.3464 63.5202 53.6229C61.5615 54.6778 60.0196 57.0402 60.0196 58.9869C60.0196 60.8101 61.329 60.7813 61.7282 58.949C62.8367 53.863 68.3132 53.7727 69.9499 58.8133L70.3644 60.0901L70.9755 60.0373L71.5862 59.9845L71.5801 58.9274C71.5677 56.8863 70.2004 54.7856 68.0359 53.4831C67.0687 52.9007 67.0813 52.9547 66.9901 49.058C66.9116 45.7107 66.8861 45.6214 66.0049 45.6214C65.5487 45.6214 65.2955 45.7166 65.1885 45.9295ZM58.9487 61.4278C58.167 61.638 58.528 63.0466 59.4716 63.4666C60.1937 63.7879 71.6147 63.7293 72.2815 63.4008C73.2251 62.9357 73.4663 61.6408 72.6517 61.4161C72.2139 61.2956 59.4001 61.3065 58.9487 61.4278ZM64.2865 64.993C60.1586 65.1026 59.848 65.1716 59.848 65.986C59.848 66.3808 60.6311 70.1174 61.043 71.6884C61.4658 73.3014 62.3529 73.6957 65.5886 73.7087C69.8468 73.7264 70.3171 73.2336 71.3378 67.6906C71.913 64.5693 72.4552 64.7768 64.2865 64.993ZM52.9081 68.2667C44.3741 68.8306 42.5408 69.1587 42.5408 70.121C42.5408 71.5291 42.4435 71.5147 48.4529 71.0049C50.7147 70.8131 53.6249 70.5853 54.9203 70.4982C57.6752 70.3132 57.8665 70.2189 57.7445 69.1032C57.6199 67.9684 57.566 67.959 52.9081 68.2667ZM74.1051 68.3912C73.8349 68.6696 73.8405 69.8494 74.1138 70.0804C74.3968 70.32 75.2404 70.4296 79.1025 70.7269C82.9843 71.0261 83.1528 70.9895 83.1528 69.8494C83.1528 68.7179 82.7589 68.5794 78.9196 68.3606C74.9456 68.1341 74.3516 68.1376 74.1051 68.3912ZM92.5347 70.3042C91.8307 70.7364 92.1347 71.9789 93.0493 72.4062C94.2428 72.9643 94.3379 73.0239 94.5197 73.3194C95.6223 75.1182 90.0993 76.8386 79.9316 77.8631C75.9668 78.2629 75.6102 78.4474 76.5604 79.6092C77.6163 80.8996 79.2692 80.967 85.8946 79.9918C98.4666 78.1406 104.515 74.3981 99.1504 71.7885C97.4549 70.9634 93.0654 69.9789 92.5347 70.3042ZM32.56 71.1907C28.4469 72.1878 28.0701 74.9811 31.8037 76.7952C36.394 79.0263 40.354 79.3209 41.3257 77.504C41.7275 76.7528 41.4862 76.5416 39.4258 75.841C35.5114 74.5105 34.4104 73.7972 34.2165 72.4666C34.1515 72.0218 33.9546 71.5097 33.7786 71.3288C33.4264 70.9665 33.4663 70.9711 32.56 71.1907ZM44.4886 77.6822C43.9157 78.0418 43.3976 78.692 43.3976 79.0515C43.3976 80.1276 51.8829 81.0432 63.0184 81.1691C73.1062 81.2827 74.2182 81.1274 73.4755 79.7094C72.7724 78.3662 72.979 78.4019 65.9048 78.4005C58.9123 78.3992 54.5023 78.2051 49.7378 77.6885C45.7708 77.2586 45.165 77.2582 44.4886 77.6822ZM28.6351 77.8185C28.2258 78.3279 28.3645 81.8335 28.8347 82.8618C29.5546 84.4374 31.8213 85.7699 35.4434 86.7479C38.5997 87.5993 38.873 87.4102 38.8301 84.4014C38.7822 81.0411 38.54 80.7597 34.817 79.7409C32.646 79.1467 31.5545 78.7506 29.4059 77.7756C28.9295 77.559 28.8391 77.564 28.6351 77.8185ZM99.4741 78.4785C97.5527 79.44 97.4038 79.6597 97.1829 81.8666C96.8277 85.4132 97.2808 85.9655 99.5608 84.7689C101.344 83.8333 101.829 82.8388 101.83 80.1087C101.832 77.3926 101.752 77.338 99.4741 78.4785ZM88.2081 81.2288C86.7 81.4984 84.1552 81.8501 82.5532 82.009C77.911 82.4699 77.8391 82.5231 77.7018 85.5772C77.5118 89.8177 77.8018 89.9076 86.9228 88.4485C91.7294 87.6798 92.1068 87.3318 92.2061 83.5709C92.2578 81.5912 92.2347 81.3977 91.9058 81.059C91.4802 80.6216 91.6338 80.6144 88.2081 81.2288ZM41.7367 81.5739C40.1312 82.2477 40.3672 87.2973 42.0438 88.1408C44.0872 89.1684 56.8926 90.0068 67.388 89.7997C75.1851 89.6458 75.4588 89.497 75.4746 85.4197C75.4851 82.6015 75.8703 82.736 68.261 82.8884C59.4273 83.0661 48.1283 82.4519 42.5408 81.4898C42.3052 81.4495 41.9433 81.4869 41.7367 81.5739ZM32.0572 88.4917C31.3132 89.8688 31.7756 93.8864 32.7561 94.5652C34.509 95.7791 35.8935 93.9094 35.3535 91.0589C34.9117 88.729 32.8122 87.0937 32.0572 88.4917ZM90.6068 90.3009C86.9776 91.0107 86.4091 91.7255 86.6175 95.3152C86.8667 99.6011 89.5913 100.084 93.1758 96.4751C94.5882 95.0535 94.8056 94.489 94.8056 92.2382C94.8056 89.6667 94.5197 89.5351 90.6068 90.3009ZM37.596 90.2671C36.4725 91.66 36.7428 95.2081 38.0926 96.7851C38.8717 97.6955 39.2306 97.8199 42.5408 98.3283C46.8956 98.9963 47.1838 99.0193 47.8032 98.7533C48.9043 98.2801 48.9122 96.6578 47.8146 96.432C47.479 96.363 47.3834 96.2824 47.5282 96.1904C47.7027 96.0796 47.7018 95.9984 47.5229 95.7769C47.3373 95.5468 47.347 95.4828 47.5812 95.39C48.0554 95.2031 48.7099 93.8583 48.7099 93.0716C48.7099 91.4975 47.8931 91.0531 44.4258 90.7396C43.2475 90.6332 41.5182 90.4311 40.583 90.2902C38.4778 89.9723 37.8378 89.968 37.596 90.2671ZM79.8807 91.3429C79.8399 91.3846 78.3813 91.509 76.6389 91.6198C71.9165 91.9182 71.2103 92.4237 71.3563 95.403C71.4852 98.0313 72.7272 98.9668 75.8475 98.7878C80.5001 98.5203 82.6896 98.0924 83.3458 97.3215C84.5636 95.8905 84.0727 91.9836 82.6088 91.4594C82.0943 91.2746 80.0324 91.1869 79.8807 91.3429ZM52.8761 91.8218C50.7639 92.4201 50.451 97.8788 52.4602 99.0862C53.9724 99.9952 65.8215 100.053 67.4034 99.1596C69.1743 98.1593 69.2406 93.4017 67.4985 92.3123C66.7063 91.8168 54.3557 91.4026 52.8761 91.8218ZM32.1972 97.3086C31.78 97.6221 31.5826 98.6569 31.5778 100.555C31.5682 104.375 32.3323 105.549 35.6615 106.826C40.0938 108.527 40.74 108.173 40.7409 104.044C40.7423 99.9829 40.4794 99.6529 36.0483 98.1514C32.5881 96.9778 32.6249 96.9864 32.1972 97.3086ZM95.8782 97.7106C94.0834 98.6303 93.1024 100.285 92.9682 102.621C92.8262 105.082 93.3353 105.524 95.2091 104.561C97.1885 103.545 97.9233 102.296 97.9436 99.9182C97.9646 97.3769 97.4996 96.8793 95.8782 97.7106ZM81.6762 100.271C79.3328 100.969 78.0457 106.551 79.9171 107.899C80.7844 108.524 86.4464 107.671 88.1643 106.657C89.9357 105.611 89.9931 101.623 88.2472 100.88C87.0377 100.366 82.704 99.9642 81.6762 100.271ZM43.8709 100.872C42.5162 101.663 42.1162 105.722 43.2133 107.548C44.0394 108.922 44.8956 109.14 51.6228 109.685C58.8992 110.275 59.8489 109.695 59.1803 105.073C58.7899 102.372 58.0854 101.738 55.1932 101.486C54.125 101.393 51.9014 101.19 50.2519 101.037C45.3891 100.583 44.4078 100.558 43.8709 100.872ZM67.0853 101.509C62.2858 101.697 61.6738 101.958 61.3053 103.978C61.0123 105.585 61.9471 106.955 63.8124 107.649C64.4125 107.873 65.4815 108.382 66.1882 108.782L67.4736 109.508L69.4441 109.492C74.9859 109.446 76.6621 108.404 76.7095 104.973C76.7608 101.231 76.5116 101.141 67.0853 101.509ZM96.276 107.771C95.96 108.619 96.4991 113.008 96.941 113.182C98.34 113.734 98.6008 108.426 97.2115 107.662C96.7375 107.4 96.3998 107.44 96.276 107.771ZM31.9029 108.406C31.4129 110.259 31.9603 113.331 32.9438 114.245C34.7437 115.917 35.8014 114.692 35.3606 111.447C34.9609 108.507 32.4586 106.307 31.9029 108.406ZM90.8639 108.463C86.0933 109.57 85.469 110.178 85.2646 113.914C85.0655 117.565 85.6076 118.132 88.5424 117.342C93.1702 116.095 94.5078 114.856 94.5197 111.802C94.5316 108.699 93.5821 107.833 90.8639 108.463ZM61.7856 109.357C61.6268 109.782 62.1914 110.124 63.0508 110.124C63.5803 110.124 63.7896 110.053 63.7896 109.871C63.7896 109.196 62.0151 108.742 61.7856 109.357ZM38.0856 109.82C37.335 110.202 36.8863 111.409 36.8863 113.044C36.8863 116.515 37.746 117.215 43.3976 118.346C48.4713 119.361 49.0179 119.277 48.381 117.579C47.6439 115.613 47.7799 115.39 49.1657 116.293C50.4568 117.135 50.766 116.907 50.766 115.114C50.766 112.072 49.2978 110.954 44.5526 110.384C43.3046 110.234 41.5898 109.996 40.7418 109.855C38.8748 109.543 38.6339 109.541 38.0856 109.82ZM77.9264 110.572C77.8321 110.609 76.6099 110.719 75.2105 110.817C71.0628 111.105 70.3351 112.063 70.4991 117.016C70.5996 120.049 70.7663 120.108 77.489 119.463C82.7975 118.956 83.0699 118.749 83.0633 115.236C83.0572 111.834 81.989 110.462 79.3679 110.491C78.6695 110.499 78.0207 110.535 77.9264 110.572ZM54.9453 112.302C52.533 113.445 52.2154 118.177 54.4764 119.302C55.634 119.879 64.3409 120.247 66.3475 119.804C68.8804 119.246 69.3936 113.796 67.023 112.628C66.0242 112.135 55.8749 111.862 54.9453 112.302Z" fill="#F0EFE9"/>
</svg>
